PathFileType	4	(X/Y/Z)	Apose_0-50.trc
DataRate	CameraRate	NumFrames	NumMarkers	Units	OrigDataRate	OrigDataStartFrame	OrigNumFrames
30	30	8	22	m	30	20	50
Frame#	Time	Hip			RHip			RKnee			RAnkle			RBigToe			RSmallToe			RHeel			LHip			LKnee			LAnkle			LBigToe			LSmallToe			LHeel			Neck			Head			Nose			RShoulder			RElbow			RWrist			LShoulder			LElbow			LWrist		
		X1	Y1	Z1	X2	Y2	Z2	X3	Y3	Z3	X4	Y4	Z4	X5	Y5	Z5	X6	Y6	Z6	X7	Y7	Z7	X8	Y8	Z8	X9	Y9	Z9	X10	Y10	Z10	X11	Y11	Z11	X12	Y12	Z12	X13	Y13	Z13	X14	Y14	Z14	X15	Y15	Z15	X16	Y16	Z16	X17	Y17	Z17	X18	Y18	Z18	X19	Y19	Z19	X20	Y20	Z20	X21	Y21	Z21	X22	Y22	Z22
21	0.7	0.04164145780658982	0.9216028826013204	0.360614861069095	0.03429999209894059	0.8971138918577151	0.474597269305815	0.0026682821197232132	0.5071122779788962	0.5024604783646633	-0.010914901462000429	0.10018198627518722	0.5171191066097193	0.2060961081086133	0.0406229439799608	0.5638230154615309	0.1480477863485475	0.03387965053732508	0.6150521186232297	-0.057745176276481076	0.029411187429803087	0.5051871793437952	0.03205536684337515	0.8936208957119666	0.24696452261032348	0.013645765860410707	0.5093071490312028	0.22375923864473676	0.0034818359220122885	0.11557783898693995	0.2116728881566692	0.20821847588312695	0.03978230495621805	0.1907671341136026	0.16140495098984606	0.038082021561328144	0.1320901625758427	-0.0325209548927105	0.0395872563122861	0.22224070699555615	0.06366647559309455	1.5612680638351213	0.3496041674265631	0.24170501255640386	1.7723125256149812	0.31915767927132854	0.33011465964290326	1.6150482263907024	0.3451284602524525	0.02702046638225944	1.4933801165362814	0.538665876996933	0.0730137455857948	1.2411759079915206	0.7202143726366377	0.12105349873088836	1.042851248369254	0.8923869025297322	0.017372085932732498	1.4750871939194907	0.14639219179013946	0.024439675459822768	1.2269870344803138	0.002761255530574998	0.08641656667045158	1.015897285559844	-0.14592593318822542
22	0.7333333333333333	0.03969932060801183	0.9208832262482609	0.3590705760308557	0.03300111636047685	0.8954477750899937	0.4734084880049344	0.001886503276211578	0.5065995704187554	0.5006327604214192	-0.0115212890441785	0.09967845505554548	0.5185380424820176	0.20655126941880422	0.04122129622927486	0.5614245218555366	0.14867825892378725	0.03257865424664438	0.613806266812849	-0.054378007494639474	0.03022281038586479	0.5051977690391376	0.03343341445083659	0.8925820218755559	0.24371866186065236	0.013842326130789813	0.5085004131079768	0.22303659310842755	0.0017278231210901575	0.11826692414790484	0.21071450601098593	0.20857924942350042	0.0356027141303937	0.19018073192317805	0.15952447227612757	0.033917362762993016	0.12955934905271488	-0.03598841471840841	0.038757731818320935	0.22131557875557556	0.06459659256266245	1.5636563272011184	0.3503867628034417	0.23907956496081673	1.771479706790112	0.32029535988621716	0.33218692739668076	1.6165281745250182	0.3434743701325622	0.027503327003695406	1.4930793688152697	0.5377814767683848	0.07302061357263676	1.241555472369644	0.7198992899379916	0.12164947596843292	1.041669851471569	0.8937195615436544	0.01712947699035437	1.4752140040497774	0.14910794642367367	0.026191627773890173	1.2272194342772798	0.0037753535292695236	0.08774177083024817	1.017965391083541	-0.1460607280902311
23	0.7666666666666667	0.04049804482298981	0.919482153067168	0.3592157958221366	0.03435035859734256	0.8946745239913145	0.4745639137626205	0.0016696410160730092	0.5053455769298572	0.49707319654496646	-0.010822423899004546	0.09846298878009654	0.5175490175704245	0.20706747282109783	0.041244266634960454	0.5605045651200018	0.14766331410513384	0.035045173883445274	0.6137593680731426	-0.055584814407293875	0.03324588475007719	0.5051086897450564	0.03401753327945864	0.8913784023368937	0.24479040272470148	0.015554582808953868	0.5053948417911257	0.22227890194418173	0.002017824786713273	0.11620060950369121	0.20902253229374568	0.2098177485833748	0.035897008083874776	0.18754257489777787	0.16232229326961314	0.035821691739022526	0.13042802680425608	-0.035117347410853504	0.03479802074929974	0.2204288952505159	0.06577754168264115	1.5627680362740684	0.3473855989289685	0.24014659313403727	1.7724283630848787	0.317501218292714	0.3264918129568654	1.6170198693285864	0.3454600750550378	0.030528067393432865	1.4934409152710852	0.5382692728309608	0.0740748011790928	1.240524176869347	0.7185879039465328	0.12293891611772874	1.0445714244530293	0.8934224642520157	0.015983046949869385	1.474359991593756	0.14956439931586551	0.027092671982928643	1.2273288020576218	0.0014072445008220004	0.09046716446212426	1.0165466192673855	-0.14743823377536353
24	0.8	0.042666064123215594	0.9191721817153753	0.35788083100986257	0.03474897474403961	0.8977899467611972	0.47714969914597366	0.0010814130919877508	0.5035893533079523	0.49519971932759504	-0.011698603527338673	0.0959158769987294	0.5166822815758116	0.21019195872288166	0.04103575484815998	0.5646719046760209	0.13891373063855333	0.023093880051350414	0.6268754674509475	-0.041206408636549174	0.03095633222140153	0.49576630610368183	0.034858742092798184	0.8921932134061961	0.24696016253978398	0.015414094222510053	0.5063451308756199	0.22337537672214605	0.0028326453658686973	0.11507796039424684	0.2078068166049797	0.21207650967086195	0.03989810184555509	0.18470596894529193	0.16444328881942366	0.038868827549363216	0.12554459920451208	-0.03523141619570628	0.035676715597631824	0.22185490547192402	0.06766359853634814	1.5609276318159413	0.3447431315540718	0.23830188519971104	1.7746843974260227	0.31723326432464416	0.32376218992417605	1.6152497897740075	0.3459463996959385	0.03087888238967481	1.492037026805316	0.5378859149331949	0.07028287510626129	1.2418772733898527	0.7201254208678881	0.12337943793464405	1.0458571433978956	0.8926924217607188	0.01682124886009914	1.4763695246533852	0.14948364382546353	0.028304261983624623	1.2289837579279452	0.0036603111561777455	0.08993814399643954	1.0160140851450725	-0.14710532095754486
25	0.8333333333333334	0.04137837429298653	0.9214265618198615	0.3581301065174879	0.033004198343681464	0.8961496913699694	0.4735637777737851	0.005946437576453075	0.5072887156003727	0.4991971170366415	-0.013336428869629444	0.09867585119571345	0.5173239341600447	0.20988688368706315	0.042375976976887636	0.5621016000064731	0.14923227138798673	0.034156923931199006	0.618459947553839	-0.058733359302254984	0.02905011749190943	0.5030919131250277	0.03270917941323948	0.892067160991293	0.2454575604685742	0.01576346771261658	0.5077433871731144	0.22319045190806333	-0.001271508128971574	0.11834805082489634	0.21094862286493352	0.21012237058740066	0.04037005350230632	0.18698497232435815	0.16394383433543422	0.04038073745797902	0.12827314110061727	-0.03620013740856499	0.03624965350179456	0.219179568134309	0.0661418146843423	1.5631479520359608	0.34493917421657067	0.3062652438480144	1.768242876153943	0.2703486270035579	0.32505542326568915	1.6174028934433498	0.340538938524943	0.02865035480633904	1.4933420456963225	0.5393090673331403	0.07045192717890723	1.2413650026756438	0.7195405359734042	0.12132545577781413	1.0436057206814804	0.8904372341907499	0.014466235891862847	1.4742225740682005	0.1484240505599959	0.025853389428489002	1.2261939514470364	0.0005185692576553829	0.08979763423377303	1.017269671693674	-0.14761555762777204
26	0.8666666666666667	0.03965813239949023	0.920813099754608	0.3595042941844565	0.03534729936154414	0.8967766224758073	0.47540930735014486	0.006771844924382898	0.5064963078241764	0.5016168275265559	-0.012432509989914436	0.09590958356475761	0.5165729367940164	0.20880256826347504	0.04094786499962106	0.5611643668727325	0.15023082397519957	0.03366905151009769	0.6153803910468271	-0.05961276956517191	0.02846485766853988	0.5018188429207702	0.034081506689461055	0.8905447437167072	0.2472158445496946	0.014365459911040686	0.5078763522034512	0.2238699460132574	0.0043778731524323905	0.10840718704479914	0.20719660018594224	0.20743378658709283	0.040414799316416894	0.19085599661605454	0.16180274662035088	0.04041849677826309	0.13083213402245658	-0.03528216141549845	0.03783542263524204	0.2202770593720993	0.06161625319481537	1.5668821539138558	0.3479215619302961	0.23412232474111638	1.7745414199560061	0.3206325011634003	0.23660766658613247	1.584526267078	0.3228759503842537	0.029687067020746895	1.491602481929955	0.5391490107774848	0.07097693388690668	1.2290204814440104	0.720886963626421	0.12217920769174691	1.0439864944215251	0.8866595735527422	0.01293800850380361	1.473608364739113	0.14779500555183805	0.026558444133752617	1.22618593074088	0.0007271673455477045	0.08888663086413567	1.0169877196056387	-0.14822372174030965
27	0.9	0.041100471253866955	0.9209792588265875	0.3574954054503069	0.034988743365452546	0.8949795921932003	0.47227461073006993	0.005742726790472682	0.5079377684657961	0.5018729306299401	-0.012247720697258324	0.09733658691470293	0.5169971050627236	0.20819454178468821	0.040055624895056305	0.5598627736047549	0.14995931079809885	0.03184319610273965	0.6158540501346623	-0.05807549119713525	0.028580163959786912	0.5048433156760973	0.03393282401588035	0.8924037673423302	0.24312458085563496	0.024383069948560165	0.4942415924776139	0.213833758554262	0.003991478228135129	0.11027897303262121	0.20706655244292207	0.2101961394384249	0.03790203006460655	0.18786407257550133	0.16555638452564528	0.03836955873127374	0.12984582320596158	-0.03500114424334989	0.041260629268285026	0.22196982493105433	0.06465123619464304	1.5649045688691432	0.3468797465884463	0.31051726048945194	1.7658556085899622	0.2643896524221485	0.327777021259538	1.621943941362353	0.34146418265696993	0.030086838519234008	1.4936588625371978	0.5384706598750278	0.0584007408486761	1.2378948601311297	0.7129826668542784	0.12349433075084422	1.0417019630777171	0.8909347141818612	0.012500623040813242	1.4740528260834578	0.14740013633527635	0.02650654355962919	1.2267176455749655	0.002883314699059197	0.08900047822346535	1.0181101179678183	-0.14582003285449005
28	0.9333333333333333	0.04171506873110293	0.9204805384658266	0.3571428659803555	0.03561050465705769	0.8928150514724031	0.4716046023939829	0.008486260953792594	0.5091437814736675	0.5024665369770227	-0.012171439035575741	0.0995647603326774	0.5184788888056595	0.20625354082853753	0.041698020665344414	0.5598912992156218	0.14990687321593096	0.03255073536407294	0.6142591890859074	-0.05908476363143817	0.028137004068437343	0.5042049993147517	0.034510654878167804	0.8901332500592357	0.24366244193062858	0.024871136398717072	0.4940649900448081	0.2145706585318509	0.0032065327115969777	0.10886314093602731	0.2065670110993252	0.20917219560447045	0.03768544663525569	0.18590526491051046	0.16243353282169695	0.0408074815205587	0.12914678870139812	-0.036126416539680156	0.040470527800755295	0.22146787183149508	0.06409770260994431	1.5662509874669592	0.34567399142589916	0.31048490064234197	1.7660258402715086	0.2634081920681751	0.32551054014249337	1.6240379052452725	0.3400871829112909	0.030521959961460756	1.4934142037815648	0.538399333209611	0.07384213982108744	1.2290788880267616	0.7246076425537723	0.12451159862260594	1.042485611125552	0.8882653190013443	0.015618685131060905	1.4740804296647578	0.1460707032246532	0.025928915255956704	1.2255054068739846	0.002145324873411955	0.08888691681894142	1.0184689867207113	-0.14531425284148236
